<svg width="211" height="154" viewBox="0 0 211 154" fill="none" xmlns="http://www.w3.org/2000/svg">
<path d="M187.364 115.862H111.228C110.573 115.861 109.946 115.601 109.483 115.138C109.02 114.675 108.76 114.048 108.759 113.393V2.46886C108.761 1.81513 109.022 1.18888 109.485 0.727017C109.947 0.265155 110.574 0.00526028 111.228 0.00415039H187.364C188.018 0.00526028 188.644 0.265155 189.107 0.727017C189.57 1.18888 189.831 1.81513 189.833 2.46886V113.393C189.832 114.048 189.571 114.675 189.109 115.138C188.646 115.601 188.018 115.861 187.364 115.862ZM111.228 0.10948C110.916 0.107259 110.607 0.166614 110.319 0.284137C110.031 0.40166 109.768 0.575033 109.547 0.794288C109.326 1.01354 109.15 1.27435 109.03 1.56174C108.91 1.84912 108.848 2.1574 108.847 2.46886V113.393C108.847 114.02 109.096 114.621 109.54 115.065C109.983 115.508 110.584 115.757 111.211 115.757H187.364C187.991 115.757 188.592 115.508 189.035 115.065C189.479 114.621 189.728 114.02 189.728 113.393V2.46886C189.728 1.84199 189.479 1.24081 189.035 0.797547C188.592 0.354288 187.991 0.105266 187.364 0.105266L111.228 0.10948Z" fill="#F0F0F0"/>
<path d="M99.5488 115.862H23.3957C22.7412 115.861 22.1139 115.601 21.6511 115.138C21.1883 114.675 20.9279 114.048 20.9268 113.393V2.46892C20.9279 1.81446 21.1883 1.18713 21.6511 0.724361C22.1139 0.26159 22.7412 0.00111397 23.3957 0H99.5488C100.203 0.00111397 100.831 0.26159 101.293 0.724361C101.756 1.18713 102.017 1.81446 102.018 2.46892V113.393C102.017 114.048 101.756 114.675 101.293 115.138C100.831 115.601 100.203 115.861 99.5488 115.862ZM23.3957 0.109543C22.7695 0.109542 22.169 0.357985 21.7259 0.800334C21.2827 1.24268 21.0332 1.84279 21.0321 2.46892V113.393C21.0321 114.02 21.2811 114.621 21.7244 115.065C22.1676 115.508 22.7688 115.757 23.3957 115.757H99.5488C100.176 115.757 100.777 115.508 101.22 115.065C101.663 114.621 101.912 114.02 101.912 113.393V2.46892C101.912 1.84206 101.663 1.24087 101.22 0.797611C100.777 0.354352 100.176 0.105329 99.5488 0.105329L23.3957 0.109543Z" fill="#F0F0F0"/>
<path d="M210.659 141.592H0V141.697H210.659V141.592Z" fill="#F0F0F0"/>
<path d="M146.888 38.8076L145.005 53.8023L131.894 40.6909L146.888 38.8076Z" fill="#F5F5F5"/>
<path d="M116.726 72.6941L143.244 46.1764L139.372 42.3003L116.726 64.9503V72.6941Z" fill="#F5F5F5"/>
<path d="M46.5472 94.3414C47.2859 95.761 47.6958 97.3286 47.7465 98.9281C47.7971 100.528 47.4873 102.118 46.8399 103.581C46.1925 105.045 45.2242 106.344 44.0066 107.382C42.789 108.421 41.3534 109.172 39.8061 109.58C38.0595 110.043 36.2239 110.053 34.4722 109.61C34.2279 109.547 33.9793 109.475 33.7391 109.395C32.6697 109.04 31.663 108.518 30.7562 107.849C30.5793 107.718 30.4023 107.579 30.2338 107.428C29.1605 106.528 28.2756 105.426 27.63 104.183C27.5711 104.065 27.5121 103.947 27.4573 103.825C26.7288 102.278 26.383 100.578 26.4488 98.8689C26.5147 97.1598 26.9904 95.4916 27.8358 94.0048C28.6812 92.518 29.8716 91.2562 31.3066 90.3257C32.7417 89.3951 34.3793 88.8231 36.0817 88.6578C36.3387 88.6326 36.5957 88.6199 36.8527 88.6115C37.966 88.5901 39.0759 88.7407 40.1432 89.0581C40.3791 89.1297 40.6108 89.2056 40.8384 89.2898C41.6554 89.5979 42.4321 90.0039 43.1514 90.499C44.4752 91.41 45.5745 92.6101 46.366 94.0086C46.425 94.1097 46.4882 94.2234 46.5472 94.3414Z" fill="#F5F5F5"/>
<path d="M44.8239 95.6812C44.7143 95.4959 44.6006 95.3147 44.4784 95.1378C43.9419 94.356 43.2783 93.6696 42.5151 93.107C41.75 92.5457 40.8953 92.1183 39.9872 91.843C39.7561 91.7676 39.5213 91.7043 39.2836 91.6534C38.1758 91.4061 37.0298 91.3832 35.913 91.586C35.629 91.6361 35.3477 91.7008 35.0704 91.7798C33.887 92.1212 32.7915 92.7146 31.8591 93.5193C30.9267 94.324 30.1795 95.3209 29.6688 96.4417C29.158 97.5624 28.8959 98.7804 28.9003 100.012C28.9047 101.244 29.1756 102.46 29.6944 103.577L29.5048 103.231C28.9861 102.236 28.6685 101.149 28.57 100.031C28.4716 98.913 28.5943 97.7867 28.9312 96.7163C29.268 95.6459 29.8124 94.6524 30.5333 93.7923C31.2541 92.9323 32.1373 92.2227 33.1323 91.704C34.1274 91.1853 35.2149 90.8677 36.3327 90.7693C37.4506 90.6708 38.5768 90.7936 39.6472 91.1304C40.7176 91.4673 41.7112 92.0116 42.5712 92.7325C43.4313 93.4533 44.1409 94.3365 44.6596 95.3316C44.7101 95.4453 44.7649 95.5801 44.8239 95.6812Z" fill="#E0E0E0"/>
<g opacity="0.3">
<path d="M41.0192 106.829C40.9307 106.876 40.8423 106.922 40.7496 106.964C40.6569 107.01 40.5684 107.053 40.4715 107.09L40.4041 107.12C40.2988 107.166 40.1976 107.204 40.0965 107.242H40.0544C39.7229 107.366 39.3837 107.469 39.039 107.55C38.9253 107.575 38.8073 107.604 38.6935 107.621C38.4618 107.668 38.2301 107.701 37.9942 107.727L37.7666 107.748H37.6445H37.4633C37.3706 107.748 37.2779 107.748 37.181 107.748C37.0841 107.748 36.9409 107.748 36.8187 107.748C36.6965 107.748 36.5785 107.748 36.4606 107.727C36.3426 107.706 36.2625 107.727 36.1656 107.701L35.9718 107.676L35.8159 107.655L35.639 107.626L35.3483 107.571L35.0997 107.512H35.0449L34.691 107.419L34.3624 107.314L34.1686 107.242L33.9748 107.171L33.7894 107.095L33.5914 107.006L33.4018 106.918L33.2164 106.825C33.09 106.762 32.9636 106.694 32.8372 106.619L32.6856 106.53C32.5592 106.454 32.4412 106.378 32.319 106.294L32.1505 106.176C31.9693 106.05 31.7924 105.911 31.6238 105.755L31.489 105.637C31.3879 105.548 31.291 105.464 31.1983 105.371C31.1014 105.279 31.0087 105.182 30.916 105.085L30.7896 104.95L30.7306 104.883L30.6 104.735V104.71C30.5501 104.655 30.5037 104.598 30.461 104.537C30.4068 104.476 30.3562 104.411 30.3093 104.343C30.2588 104.28 30.2124 104.213 30.1661 104.145C30.1197 104.078 30.0902 104.04 30.0565 103.985L29.9849 103.88L29.8922 103.733L29.7658 103.522C29.2471 102.405 28.9762 101.189 28.9717 99.9572C28.9673 98.7256 29.2295 97.5076 29.7402 96.3868C30.2509 95.2661 30.9982 94.2692 31.9306 93.4645C32.863 92.6598 33.9585 92.0664 35.1418 91.725C35.4192 91.6459 35.7004 91.5812 35.9845 91.5312C37.1012 91.3284 38.2473 91.3513 39.355 91.5986C39.5927 91.6495 39.8276 91.7128 40.0586 91.7882C40.9667 92.0635 41.8215 92.4908 42.5865 93.0522C43.3497 93.6148 44.0133 94.3012 44.5499 95.0829C44.672 95.2599 44.7858 95.441 44.8953 95.6264C45.825 97.6323 45.9405 99.9206 45.2176 102.01C44.4947 104.099 42.9897 105.827 41.0192 106.829Z" fill="black"/>
</g>
<path d="M41.0195 106.829C40.931 106.876 40.8426 106.922 40.7499 106.964C40.6572 107.01 40.5687 107.053 40.4718 107.091L40.4044 107.12C40.2991 107.166 40.198 107.204 40.0968 107.242H40.0547C39.7232 107.366 39.384 107.469 39.0393 107.55C38.9256 107.575 38.8076 107.605 38.6938 107.621C38.4621 107.668 38.2304 107.701 37.9945 107.727H37.9018H37.7627H37.6406H37.4594C37.3667 107.727 37.274 107.727 37.1771 107.727C37.0802 107.727 36.937 107.727 36.8148 107.727C36.6926 107.727 36.5746 107.727 36.4567 107.706C36.3387 107.685 36.2586 107.706 36.1617 107.68L35.9679 107.655L35.812 107.634L35.6351 107.605L35.3444 107.55L35.0958 107.491H35.041L34.6871 107.398L34.3585 107.293L34.1647 107.221L33.9709 107.15L33.7855 107.074L33.5875 106.985L33.3979 106.897L33.2125 106.804C33.0861 106.741 32.9597 106.673 32.8333 106.598L32.6816 106.509C32.5553 106.433 32.4373 106.357 32.3151 106.273L32.1466 106.155C31.9654 106.029 31.7885 105.89 31.6199 105.734L31.4851 105.616C31.384 105.527 31.2871 105.443 31.1944 105.351C31.0975 105.258 31.0048 105.161 30.9121 105.064L30.7857 104.929L30.7267 104.862L30.5961 104.714V104.689C30.5462 104.634 30.4998 104.577 30.4571 104.516C30.4029 104.455 30.3523 104.39 30.3054 104.322C30.2549 104.259 30.2085 104.192 30.1622 104.124C30.1158 104.057 30.0863 104.019 30.0526 103.964L29.981 103.859L29.8883 103.712L29.7619 103.501C29.2431 102.384 28.9723 101.168 28.9678 99.9362C28.9634 98.7046 29.2256 97.4866 29.7363 96.3658C30.247 95.2451 30.9943 94.2482 31.9267 93.4435C32.8591 92.6388 33.9546 92.0454 35.1379 91.704C35.4153 91.6249 35.6965 91.5602 35.9806 91.5102C37.0973 91.3074 38.2434 91.3303 39.3511 91.5776C39.5888 91.6285 39.8237 91.6918 40.0547 91.7672C40.9628 92.0425 41.8176 92.4699 42.5826 93.0312C43.3458 93.5938 44.0094 94.2802 44.546 95.0619C44.6681 95.2389 44.7819 95.4201 44.8914 95.6054C45.8278 97.6131 45.9474 99.9061 45.225 102C44.5026 104.094 42.9946 105.826 41.0195 106.829Z" fill="#F0F0F0"/>
<path d="M40.3707 103.012L41.0237 104.276L39.4269 105.119L38.8034 103.918C37.7669 104.411 36.6308 104.657 35.4834 104.638L35.3275 102.245C36.3713 102.288 37.4086 102.061 38.3399 101.588C39.0983 101.192 39.2837 100.893 39.1446 100.623C38.6264 99.6248 34.6618 102.709 33.124 99.7554C32.4583 98.4914 32.8291 96.9157 34.5481 95.6897L33.9077 94.4552L35.5045 93.6125L36.1322 94.8259C36.9645 94.4782 37.8593 94.3047 38.7612 94.3162L38.9635 96.6671C38.0885 96.6521 37.2223 96.8441 36.4356 97.2275C35.6519 97.6488 35.5213 97.99 35.6646 98.2639C36.1575 99.2161 40.1263 96.1573 41.6473 99.0602C42.2961 100.269 41.9675 101.79 40.3707 103.012Z" fill="#E0E0E0"/>
<path d="M40.1051 102.616L40.7581 103.88L39.1655 104.723L38.5378 103.526C37.4998 104.014 36.3647 104.261 35.2178 104.247L35.0661 101.854C36.1008 101.895 37.1294 101.677 38.0575 101.217C38.8158 100.821 39.0054 100.522 38.8622 100.248C38.3398 99.233 34.3836 102.321 32.8626 99.372C32.1969 98.108 32.5635 96.5365 34.2867 95.3105L33.6421 94.076L35.2389 93.2334L35.8708 94.4426C36.6988 94.086 37.59 93.8997 38.4914 93.8949L38.6979 96.25C37.8227 96.2331 36.956 96.4252 36.17 96.8104C35.3905 97.2317 35.2557 97.573 35.399 97.8426C35.8919 98.7948 39.8607 95.736 41.3817 98.6431C42.0305 99.8734 41.7103 101.399 40.1051 102.616Z" fill="#F5F5F5"/>
<path d="M175.908 60.3622C175.359 62.345 174.247 64.1263 172.707 65.4912C171.167 66.856 169.265 67.7461 167.231 68.0539C165.197 68.3617 163.117 68.0741 161.242 67.2259C159.367 66.3776 157.778 65.0049 156.667 63.2735C156.528 63.0587 156.397 62.8522 156.275 62.6121C155.733 61.6206 155.351 60.5499 155.142 59.4395C155.104 59.2204 155.07 59.0182 155.04 58.7781C154.873 57.3885 154.982 55.9797 155.361 54.6323C155.394 54.5059 155.432 54.3795 155.474 54.2531C155.996 52.6206 156.903 51.1377 158.118 49.93C159.334 48.7222 160.823 47.8251 162.459 47.3147C164.095 46.8042 165.83 46.6954 167.517 46.9974C169.204 47.2995 170.793 48.0035 172.15 49.0498C172.352 49.2057 172.55 49.37 172.74 49.5428C173.573 50.2849 174.284 51.1537 174.847 52.117C174.969 52.3277 175.087 52.5383 175.196 52.7616C175.584 53.5419 175.874 54.3669 176.06 55.2179C176.257 56.111 176.336 57.026 176.296 57.9396C176.267 58.627 176.171 59.31 176.009 59.9788C175.976 60.1094 175.942 60.2358 175.908 60.3622Z" fill="#F5F5F5"/>
<path d="M173.735 60.1641C173.781 59.9535 173.823 59.7428 173.853 59.5322C173.998 58.5954 173.982 57.6408 173.806 56.7093C173.635 55.7751 173.307 54.8763 172.837 54.0508C172.719 53.8402 172.589 53.6295 172.454 53.4315C171.811 52.4942 170.989 51.6937 170.035 51.0763C169.795 50.9289 169.551 50.7856 169.298 50.655C168.791 50.3984 168.261 50.1924 167.714 50.0399C165.601 49.452 163.343 49.7005 161.408 50.7337C159.473 51.7669 158.011 53.5056 157.324 55.5886C157.358 55.4622 157.387 55.3358 157.421 55.2094C158.028 53.0305 159.476 51.1821 161.447 50.0708C163.417 48.9595 165.748 48.6763 167.927 49.2836C170.106 49.8909 171.954 51.3389 173.065 53.3091C174.177 55.2793 174.46 57.6102 173.853 59.7892L173.735 60.1641Z" fill="#E0E0E0"/>
<g opacity="0.3">
<path d="M163.345 65.7087L163.054 65.6244L162.764 65.5275L162.692 65.5023L162.389 65.3843H162.342C162.017 65.2474 161.7 65.0898 161.394 64.9124C161.293 64.8534 161.188 64.7945 161.091 64.7313C160.889 64.6049 160.699 64.47 160.51 64.331L160.333 64.192L160.236 64.1119L160.101 63.9813C160.029 63.9181 159.958 63.8591 159.89 63.7917L159.629 63.5431C159.545 63.4589 159.461 63.3704 159.381 63.2819C159.3 63.1934 159.246 63.1387 159.183 63.0586C159.119 62.9786 159.098 62.9617 159.06 62.9112L158.959 62.789L158.85 62.6457C158.791 62.5699 158.732 62.4898 158.677 62.4098C158.622 62.3297 158.58 62.2708 158.534 62.1949L158.5 62.1486L158.306 61.8368L158.142 61.5377C158.108 61.4745 158.079 61.4113 158.049 61.3523C158.02 61.2933 157.986 61.2259 157.956 61.1627C157.927 61.0995 157.902 61.0447 157.872 60.9815C157.843 60.9183 157.813 60.8509 157.788 60.7835L157.712 60.5897C157.687 60.5265 157.662 60.4633 157.64 60.3959C157.59 60.2611 157.544 60.1263 157.501 59.9746L157.451 59.8018C157.413 59.667 157.379 59.5238 157.346 59.3805C157.346 59.3131 157.316 59.2457 157.303 59.1783C157.257 58.9592 157.223 58.757 157.194 58.521C157.194 58.462 157.194 58.4031 157.194 58.3441C157.194 58.2135 157.169 58.0829 157.164 57.948C157.164 57.8132 157.164 57.6826 157.164 57.552V57.3666C157.164 57.3329 157.164 57.3034 157.164 57.2739C157.164 57.2444 157.164 57.1433 157.164 57.0759C157.163 57.0662 157.163 57.0562 157.164 57.0464C157.164 56.9748 157.164 56.899 157.164 56.8273L157.19 56.583C157.19 56.4987 157.19 56.4187 157.219 56.3386C157.249 56.2586 157.219 56.2122 157.249 56.1448C157.278 56.0774 157.249 56.0648 157.249 56.0226C157.249 55.9805 157.27 55.9089 157.282 55.8499L157.333 55.6097C158.019 53.5267 159.482 51.788 161.417 50.7548C163.351 49.7216 165.61 49.4731 167.723 50.061C168.27 50.2135 168.8 50.4195 169.307 50.6761C169.56 50.8067 169.804 50.95 170.044 51.0974C170.998 51.7148 171.82 52.5153 172.462 53.4526C172.597 53.6506 172.728 53.8739 172.846 54.0719C173.316 54.8974 173.643 55.7962 173.815 56.7304C173.991 57.6619 174.006 58.6165 173.861 59.5533C173.832 59.7639 173.79 59.9746 173.743 60.1852C173.051 62.2649 171.585 63.9984 169.649 65.0267C167.713 66.055 165.456 66.2992 163.345 65.7087Z" fill="black"/>
</g>
<path d="M163.345 65.7087L163.054 65.6244L162.763 65.5275L162.692 65.5023L162.388 65.3843H162.342C162.016 65.2474 161.7 65.0898 161.394 64.9124C161.293 64.8534 161.187 64.7945 161.091 64.7313C160.888 64.6049 160.699 64.47 160.509 64.331L160.433 64.272C160.396 64.2463 160.361 64.2181 160.328 64.1878L160.231 64.1077L160.1 63.9813C160.029 63.9181 159.957 63.8591 159.89 63.7917L159.629 63.5431C159.544 63.4589 159.46 63.3704 159.38 63.2819C159.3 63.1934 159.245 63.1387 159.182 63.0586C159.119 62.9786 159.098 62.9617 159.06 62.9112L158.959 62.789L158.849 62.6457C158.79 62.5699 158.731 62.4898 158.676 62.4098C158.622 62.3297 158.58 62.2708 158.533 62.1949L158.499 62.1486L158.306 61.8368L158.141 61.5377C158.108 61.4745 158.078 61.4113 158.049 61.3523C158.019 61.2933 157.985 61.2259 157.956 61.1627C157.926 61.0995 157.901 61.0447 157.872 60.9815C157.842 60.9183 157.813 60.8509 157.787 60.7835L157.712 60.5897C157.686 60.5265 157.661 60.4633 157.64 60.3959C157.589 60.2611 157.543 60.1263 157.501 59.9746L157.45 59.8018C157.412 59.667 157.379 59.5238 157.345 59.3805C157.345 59.3131 157.316 59.2457 157.303 59.1783C157.257 58.9592 157.223 58.757 157.193 58.521C157.193 58.462 157.193 58.4031 157.193 58.3441C157.193 58.2135 157.168 58.0829 157.164 57.948C157.164 57.8132 157.164 57.6826 157.164 57.552V57.3666C157.164 57.3329 157.164 57.3034 157.164 57.2739C157.164 57.2444 157.164 57.1433 157.164 57.0759C157.162 57.0662 157.162 57.0562 157.164 57.0464C157.164 56.9748 157.164 56.899 157.164 56.8273L157.189 56.583C157.189 56.4987 157.189 56.4187 157.219 56.3386C157.248 56.2586 157.219 56.2122 157.248 56.1448C157.278 56.0774 157.248 56.0648 157.248 56.0226C157.248 55.9805 157.269 55.9089 157.282 55.8499L157.332 55.6097C158.019 53.5267 159.481 51.788 161.416 50.7548C163.351 49.7216 165.609 49.4731 167.722 50.061C168.269 50.2135 168.8 50.4195 169.306 50.6761C169.559 50.8067 169.803 50.95 170.044 51.0974C170.998 51.7148 171.82 52.5153 172.462 53.4526C172.597 53.6506 172.727 53.8739 172.845 54.0719C173.315 54.8974 173.643 55.7962 173.814 56.7304C173.99 57.6619 174.006 58.6165 173.861 59.5533C173.831 59.7639 173.789 59.9746 173.743 60.1852C173.05 62.2649 171.584 63.9984 169.648 65.0267C167.713 66.055 165.456 66.2992 163.345 65.7087Z" fill="#F0F0F0"/>
<path d="M165.477 62.4772L165.098 63.8381L163.362 63.3578L163.728 62.0559C162.634 61.7055 161.636 61.1087 160.809 60.3116L162.33 58.4578C163.056 59.197 163.957 59.7405 164.95 60.0378C165.793 60.2653 166.117 60.1768 166.214 59.8819C166.513 58.7991 161.512 58.3483 162.422 55.1379C162.81 53.7475 164.141 52.8627 166.235 53.1408L166.61 51.801L168.342 52.2855L167.975 53.6001C168.829 53.9085 169.611 54.3889 170.271 55.0115L168.814 56.8695C168.19 56.2628 167.43 55.8137 166.598 55.5592C165.755 55.3232 165.409 55.496 165.334 55.7909C165.047 56.8231 170.044 57.2866 169.159 60.4591C168.755 61.7863 167.474 62.6752 165.477 62.4772Z" fill="#E0E0E0"/>
<path d="M165.552 62.0096L165.173 63.3704L163.437 62.8901L163.804 61.584C162.71 61.2366 161.711 60.6411 160.884 59.844L162.409 57.9902C163.134 58.73 164.034 59.2737 165.026 59.5701C165.868 59.7976 166.193 59.7092 166.29 59.4142C166.589 58.3315 161.592 57.8806 162.498 54.6702C162.886 53.2799 164.217 52.3951 166.315 52.6732L166.686 51.3334L168.422 51.8179L168.051 53.1324C168.906 53.4418 169.688 53.9221 170.351 54.5438L168.864 56.3976C168.24 55.791 167.48 55.3418 166.648 55.0873C165.805 54.8514 165.46 55.0241 165.384 55.319C165.097 56.3513 170.094 56.8147 169.21 59.9872C168.83 61.3186 167.55 62.2076 165.552 62.0096Z" fill="#F5F5F5"/>
<path d="M64.0611 23.2356L62.1736 38.2303L49.0664 25.1231L64.0611 23.2356Z" fill="#F5F5F5"/>
<path d="M21.0405 69.9808L60.4169 30.6045L56.545 26.7325L21.0405 62.237V69.9808Z" fill="#F5F5F5"/>
<path d="M37.076 10.7773C37.076 10.8518 37.0613 10.9255 37.0327 10.9943C37.004 11.0631 36.9621 11.1255 36.9092 11.178C36.8563 11.2305 36.7936 11.272 36.7246 11.3001C36.6556 11.3282 36.5818 11.3424 36.5073 11.3418H34.2659V13.5917C34.2536 13.7335 34.1886 13.8656 34.0837 13.9619C33.9788 14.0581 33.8416 14.1115 33.6992 14.1115C33.5568 14.1115 33.4196 14.0581 33.3147 13.9619C33.2098 13.8656 33.1448 13.7335 33.1325 13.5917V11.3418H30.8827C30.7366 11.3375 30.5979 11.2767 30.4958 11.1722C30.3936 11.0676 30.336 10.9276 30.335 10.7815C30.335 10.6318 30.3944 10.4882 30.5003 10.3823C30.6062 10.2764 30.7498 10.2169 30.8995 10.2169H33.1494V7.94602C33.1616 7.80416 33.2266 7.67206 33.3315 7.5758C33.4364 7.47955 33.5737 7.42615 33.716 7.42615C33.8584 7.42615 33.9956 7.47955 34.1005 7.5758C34.2055 7.67206 34.2705 7.80416 34.2827 7.94602V10.1959H36.5325C36.6816 10.2013 36.8223 10.2656 36.9242 10.3745C37.026 10.4834 37.0806 10.6282 37.076 10.7773Z" fill="#F5F5F5"/>
<path d="M179.283 16.0143C179.283 16.0888 179.268 16.1625 179.24 16.2313C179.211 16.3001 179.169 16.3625 179.116 16.415C179.063 16.4674 179.001 16.5089 178.932 16.5371C178.863 16.5652 178.789 16.5794 178.714 16.5788H176.464V18.8287C176.471 18.9072 176.462 18.9863 176.436 19.0609C176.411 19.1355 176.37 19.204 176.317 19.2621C176.264 19.3202 176.199 19.3665 176.127 19.3983C176.054 19.43 175.976 19.4464 175.898 19.4464C175.819 19.4464 175.741 19.43 175.669 19.3983C175.597 19.3665 175.532 19.3202 175.479 19.2621C175.425 19.204 175.385 19.1355 175.359 19.0609C175.334 18.9863 175.324 18.9072 175.331 18.8287V16.583H173.081C172.931 16.583 172.788 16.5236 172.682 16.4177C172.576 16.3118 172.517 16.1682 172.517 16.0185C172.518 15.8691 172.578 15.7261 172.683 15.6205C172.789 15.5149 172.932 15.455 173.081 15.4539H175.331V13.2041C175.343 13.0622 175.408 12.9301 175.513 12.8339C175.618 12.7376 175.755 12.6842 175.898 12.6842C176.04 12.6842 176.177 12.7376 176.282 12.8339C176.387 12.9301 176.452 13.0622 176.464 13.2041V15.4539H178.714C178.864 15.4539 179.007 15.5127 179.113 15.6175C179.22 15.7224 179.281 15.8649 179.283 16.0143Z" fill="#F5F5F5"/>
<path d="M136.928 90.1029C136.927 90.2531 136.867 90.3967 136.76 90.5024C136.653 90.6082 136.509 90.6675 136.359 90.6675H134.105V92.9173C134.112 92.9959 134.102 93.0749 134.077 93.1496C134.052 93.2242 134.011 93.2927 133.958 93.3508C133.904 93.4088 133.84 93.4552 133.768 93.4869C133.695 93.5187 133.617 93.535 133.539 93.535C133.46 93.535 133.382 93.5187 133.31 93.4869C133.238 93.4552 133.173 93.4088 133.119 93.3508C133.066 93.2927 133.026 93.2242 133 93.1496C132.975 93.0749 132.965 92.9959 132.972 92.9173V90.6675H130.722C130.572 90.6675 130.428 90.6082 130.321 90.5024C130.215 90.3967 130.154 90.2531 130.153 90.1029C130.156 89.9532 130.216 89.8102 130.323 89.7047C130.429 89.5992 130.572 89.5395 130.722 89.5384H132.972V87.2885C132.984 87.1467 133.049 87.0146 133.154 86.9183C133.259 86.8221 133.396 86.7687 133.539 86.7687C133.681 86.7687 133.818 86.8221 133.923 86.9183C134.028 87.0146 134.093 87.1467 134.105 87.2885V89.5384H136.355C136.506 89.5384 136.65 89.5976 136.757 89.7032C136.865 89.8089 136.926 89.9524 136.928 90.1029Z" fill="#F5F5F5"/>
<path d="M179.953 35.3317C179.153 33.4611 177.131 29.9641 172.951 29.0119C169.13 28.1398 166.239 32.9723 163.872 33.3262C161.504 33.6801 161.765 32.6142 157.021 30.8363C152.968 29.3111 150.25 33.2715 149.286 35.3317H179.953Z" fill="#F5F5F5"/>
<path d="M94.4846 13.7139C94.4846 13.7139 94.4846 9.45855 90.3052 9.27738C88.3039 9.19312 85.8645 10.8278 84.3225 8.24094C82.5319 5.23694 79.4015 3.44635 76.5829 4.60918C73.4693 5.87314 71.704 10.8194 68.6621 10.4149C65.6202 10.0105 59.8144 7.98815 56.8188 13.7139H94.4846Z" fill="#F5F5F5"/>
<path d="M104.271 154C153.601 154 193.591 152.855 193.591 151.443C193.591 150.03 153.601 148.885 104.271 148.885C54.9418 148.885 14.9521 150.03 14.9521 151.443C14.9521 152.855 54.9418 154 104.271 154Z" fill="#F0F0F0"/>
<path d="M155.752 131.868C156.6 134.394 156.78 137.097 156.274 139.713C155.768 142.329 154.593 144.769 152.864 146.796C151.135 148.824 148.911 150.369 146.408 151.282C143.905 152.196 141.208 152.445 138.58 152.007C137.381 151.802 136.21 151.458 135.091 150.983C134.75 150.836 134.413 150.68 134.084 150.511C132.629 149.766 131.302 148.793 130.153 147.63C129.926 147.402 129.707 147.166 129.496 146.926C128.166 145.399 127.15 143.625 126.505 141.706C126.446 141.525 126.387 141.344 126.336 141.158C125.636 138.781 125.518 136.271 125.993 133.839C126.467 131.408 127.52 129.126 129.062 127.186C130.604 125.247 132.589 123.707 134.852 122.697C137.114 121.686 139.586 121.235 142.06 121.382C142.435 121.407 142.801 121.441 143.172 121.491C144.769 121.706 146.323 122.169 147.777 122.865C148.093 123.016 148.409 123.181 148.716 123.353C151.863 125.126 154.285 127.949 155.559 131.329C155.626 131.506 155.689 131.687 155.752 131.868Z" fill="#407BFF"/>
<path d="M155.752 131.868C156.6 134.394 156.78 137.097 156.274 139.713C155.768 142.329 154.593 144.769 152.864 146.796C151.135 148.824 148.911 150.369 146.408 151.282C143.905 152.196 141.208 152.445 138.58 152.007C137.381 151.802 136.21 151.458 135.091 150.983C134.75 150.836 134.413 150.68 134.084 150.511C132.629 149.766 131.302 148.793 130.153 147.63C129.926 147.402 129.707 147.166 129.496 146.926C128.166 145.399 127.15 143.625 126.505 141.706C126.446 141.525 126.387 141.344 126.336 141.158C125.636 138.781 125.518 136.271 125.993 133.839C126.467 131.408 127.52 129.126 129.062 127.186C130.604 125.247 132.589 123.707 134.852 122.697C137.114 121.686 139.586 121.235 142.06 121.382C142.435 121.407 142.801 121.441 143.172 121.491C144.769 121.706 146.323 122.169 147.777 122.865C148.093 123.016 148.409 123.181 148.716 123.353C151.863 125.126 154.285 127.949 155.559 131.329C155.626 131.506 155.689 131.687 155.752 131.868Z" fill="#407BFF"/>
<path opacity="0.6" d="M152.989 133.393C152.875 133.103 152.753 132.82 152.618 132.551C151.424 130.058 149.426 128.038 146.947 126.817C146.631 126.661 146.311 126.517 145.982 126.395C144.453 125.796 142.82 125.51 141.179 125.553C140.769 125.561 140.36 125.591 139.953 125.641C139.139 125.744 138.337 125.929 137.56 126.193C134.555 127.207 132.055 129.339 130.579 132.146C129.102 134.954 128.763 138.221 129.631 141.272L129.441 140.741C128.906 139.202 128.682 137.572 128.781 135.945C128.879 134.318 129.3 132.727 130.017 131.264C130.735 129.801 131.735 128.494 132.96 127.42C134.186 126.346 135.612 125.525 137.157 125.005C138.701 124.485 140.333 124.277 141.959 124.392C143.585 124.507 145.171 124.943 146.628 125.674C148.084 126.406 149.38 127.419 150.442 128.655C151.505 129.891 152.311 131.326 152.816 132.875C152.879 133.035 152.938 133.216 152.989 133.393Z" fill="black"/>
<g opacity="0.3">
<path d="M145.06 148.472C144.921 148.523 144.782 148.565 144.639 148.607L144.218 148.725L144.112 148.755L143.649 148.86H143.581C143.081 148.963 142.574 149.034 142.065 149.071C141.892 149.071 141.723 149.096 141.551 149.096C141.209 149.096 140.872 149.096 140.531 149.096L140.203 149.075H140.026L139.764 149.045C139.63 149.045 139.489 149.028 139.343 148.995C139.17 148.97 139.002 148.944 138.829 148.906C138.656 148.868 138.488 148.839 138.319 148.801C138.151 148.763 138.041 148.734 137.898 148.691L137.628 148.616L137.413 148.552L137.165 148.468L136.765 148.325C136.647 148.283 136.533 148.236 136.419 148.186L136.343 148.156C136.183 148.085 136.019 148.017 135.859 147.941C135.699 147.866 135.564 147.798 135.416 147.718H135.391L135.126 147.575L134.869 147.423L134.62 147.276L134.355 147.107L134.106 146.939L133.862 146.766C133.693 146.644 133.529 146.517 133.365 146.383L133.167 146.223C133.006 146.088 132.851 145.947 132.699 145.801L132.48 145.595C132.252 145.371 132.033 145.136 131.823 144.895L131.654 144.697C131.532 144.55 131.414 144.407 131.296 144.251V144.23C131.182 144.078 131.068 143.922 130.963 143.762L130.811 143.543L130.74 143.429C130.689 143.349 130.639 143.269 130.592 143.189L130.567 143.151C130.512 143.063 130.457 142.966 130.407 142.873C130.356 142.78 130.289 142.667 130.238 142.561C130.188 142.456 130.125 142.355 130.074 142.249C130.023 142.144 129.994 142.081 129.952 141.992C129.91 141.904 129.901 141.883 129.88 141.828C129.842 141.753 129.808 141.676 129.779 141.596L129.64 141.264C128.772 138.213 129.112 134.945 130.588 132.138C132.064 129.33 134.564 127.199 137.569 126.185C138.346 125.92 139.148 125.735 139.962 125.633C140.369 125.582 140.778 125.553 141.188 125.544C142.83 125.501 144.463 125.788 145.991 126.387C146.32 126.513 146.64 126.657 146.956 126.808C149.436 128.03 151.433 130.049 152.627 132.542C152.762 132.82 152.884 133.103 152.998 133.385C153.869 136.438 153.53 139.709 152.052 142.519C150.574 145.329 148.07 147.461 145.06 148.472Z" fill="black"/>
</g>
<g opacity="0.6">
<path d="M144.984 142.869L145.637 144.811L143.172 145.654L142.549 143.8C140.956 144.269 139.277 144.369 137.64 144.091L137.956 140.632C139.426 140.927 140.947 140.845 142.376 140.391C143.547 140 143.884 139.612 143.745 139.191C143.227 137.653 136.873 141.171 135.34 136.608C134.674 134.632 135.546 132.487 138.289 131.131L137.649 129.222L140.113 128.38L140.745 130.254C142.017 129.929 143.342 129.867 144.638 130.073L144.402 133.482C143.162 133.265 141.888 133.347 140.686 133.722C139.477 134.143 139.212 134.607 139.351 135.024C139.848 136.494 146.206 132.993 147.722 137.505C148.35 139.397 147.537 141.504 144.984 142.869Z" fill="black"/>
</g>
<path d="M144.697 142.249L145.351 144.192L142.882 145.034L142.258 143.181C140.665 143.649 138.986 143.747 137.35 143.467L137.67 140.012C139.139 140.304 140.657 140.222 142.085 139.772C143.261 139.376 143.598 138.988 143.455 138.571C142.936 137.029 136.583 140.552 135.049 135.984C134.384 134.009 135.26 131.864 137.999 130.507L137.35 128.578L139.819 127.735L140.446 129.606C141.718 129.282 143.043 129.221 144.339 129.425L144.103 132.837C142.863 132.622 141.59 132.702 140.387 133.073C139.178 133.495 138.913 133.958 139.056 134.379C139.549 135.85 145.907 132.344 147.423 136.861C148.06 138.761 147.251 140.863 144.697 142.249Z" fill="#407BFF"/>
<path d="M71.8515 68.1228C71.3264 70.3738 70.3026 72.4782 68.8557 74.2807C67.4088 76.0832 65.5757 77.5379 63.4917 78.5375C61.4076 79.5371 59.1256 80.0561 56.8142 80.0561C54.5028 80.0562 52.2209 79.5373 50.1368 78.5378C48.8864 77.9394 47.724 77.1725 46.682 76.2585C45.7676 75.4563 44.9503 74.5499 44.2467 73.5578C44.0319 73.2545 43.8254 72.9427 43.6401 72.6267C42.7931 71.2291 42.1731 69.7061 41.8031 68.1144C41.7315 67.7984 41.6683 67.4866 41.6135 67.1664C41.2813 65.1692 41.3471 63.1259 41.8073 61.1542C41.8495 60.9688 41.8958 60.7835 41.9506 60.6023C42.6 58.2105 43.8158 56.0103 45.4954 54.1877C47.1749 52.3652 49.2686 50.9739 51.5995 50.1317C53.9304 49.2894 56.4299 49.0209 58.8865 49.3489C61.3431 49.6768 63.6846 50.5916 65.7129 52.0159C66.0162 52.2307 66.3112 52.4372 66.5976 52.69C67.8468 53.7094 68.9274 54.9194 69.7997 56.2754C69.9893 56.5703 70.1746 56.8736 70.3432 57.1812C71.5973 59.4521 72.2595 62.0022 72.2686 64.5964C72.267 65.5861 72.1725 66.5735 71.9863 67.5456C71.9315 67.7478 71.8936 67.9374 71.8515 68.1228Z" fill="#407BFF"/>
<path d="M71.8515 68.1228C71.3264 70.3738 70.3026 72.4782 68.8557 74.2807C67.4088 76.0832 65.5757 77.5379 63.4917 78.5375C61.4076 79.5371 59.1256 80.0561 56.8142 80.0561C54.5028 80.0562 52.2209 79.5373 50.1368 78.5378C48.8864 77.9394 47.724 77.1725 46.682 76.2585C45.7676 75.4563 44.9503 74.5499 44.2467 73.5578C44.0319 73.2545 43.8254 72.9427 43.6401 72.6267C42.7931 71.2291 42.1731 69.7061 41.8031 68.1144C41.7315 67.7984 41.6683 67.4866 41.6135 67.1664C41.2813 65.1692 41.3471 63.1259 41.8073 61.1542C41.8495 60.9688 41.8958 60.7835 41.9506 60.6023C42.6 58.2105 43.8158 56.0103 45.4954 54.1877C47.1749 52.3652 49.2686 50.9739 51.5995 50.1317C53.9304 49.2894 56.4299 49.0209 58.8865 49.3489C61.3431 49.6768 63.6846 50.5916 65.7129 52.0159C66.0162 52.2307 66.3112 52.4372 66.5976 52.69C67.8468 53.7094 68.9274 54.9194 69.7997 56.2754C69.9893 56.5703 70.1746 56.8736 70.3432 57.1812C71.5973 59.4521 72.2595 62.0022 72.2686 64.5964C72.267 65.5861 72.1725 66.5735 71.9863 67.5456C71.9315 67.7478 71.8936 67.9374 71.8515 68.1228Z" fill="#407BFF"/>
<path opacity="0.6" d="M68.6959 67.9712C68.7507 67.6678 68.797 67.3602 68.8265 67.0527C69.1121 64.303 68.4651 61.5371 66.9896 59.1993C66.8042 58.8988 66.6062 58.6081 66.3955 58.3272C65.4095 57.0133 64.1703 55.9103 62.7511 55.0831C62.3971 54.8766 62.0329 54.6882 61.6599 54.5185C60.0407 53.7798 58.2807 53.4005 56.5009 53.4066C54.7212 53.4128 52.9638 53.8042 51.3497 54.554C49.7356 55.3038 48.303 56.3942 47.1504 57.7503C45.9977 59.1064 45.1523 60.6959 44.6724 62.4098C44.7103 62.2244 44.7482 62.039 44.7903 61.8536C45.6092 58.7542 47.6028 56.0954 50.3486 54.4409C53.0944 52.7864 56.3766 52.2661 59.4994 52.9904C62.6223 53.7147 65.3404 55.6266 67.0776 58.3209C68.8148 61.0151 69.4345 64.28 68.8054 67.4234C68.7928 67.6088 68.7422 67.7942 68.6959 67.9712Z" fill="black"/>
<g opacity="0.3">
<path d="M54.0335 76.6503C53.8903 76.6208 53.7513 76.5829 53.6122 76.545L53.1909 76.4228L53.0856 76.3891L52.6348 76.2374L52.5716 76.2121C52.0916 76.0364 51.623 75.831 51.1686 75.597C51.0169 75.517 50.8652 75.4369 50.7178 75.3484C50.4186 75.1799 50.1321 75.0029 49.8751 74.8091L49.6097 74.6195L49.4622 74.51L49.2558 74.3499C49.1505 74.2698 49.0451 74.1856 48.9398 74.0929C48.8345 74.0002 48.6744 73.8696 48.548 73.7474C48.4216 73.6252 48.291 73.5115 48.1688 73.3893C48.0466 73.2671 47.9708 73.1871 47.8739 73.0817C47.777 72.9764 47.7433 72.9469 47.6843 72.8753C47.6253 72.8037 47.5832 72.7615 47.5326 72.7068L47.3641 72.5045L47.0986 72.1717C47.0228 72.0748 46.947 71.9779 46.8796 71.8768L46.829 71.8094C46.7279 71.6661 46.6268 71.5186 46.5299 71.388C46.433 71.2574 46.3529 71.11 46.2687 70.9667V70.9457C46.2181 70.8614 46.1675 70.7729 46.1212 70.6844C46.0748 70.596 46.0243 70.5075 45.9779 70.419L45.8431 70.162C45.801 70.0693 45.7504 69.9766 45.7083 69.8839L45.5861 69.6059C45.544 69.5174 45.5061 69.4247 45.4681 69.332C45.3881 69.1424 45.3165 68.9486 45.2449 68.7464L45.1606 68.5062C45.0932 68.3082 45.0342 68.106 44.9836 67.908C44.9541 67.8068 44.9289 67.7099 44.9036 67.613C44.8277 67.3013 44.7646 66.9895 44.7098 66.6735L44.6719 66.4207C44.6424 66.2311 44.6213 66.0415 44.6002 65.8519V65.8224C44.6002 65.6328 44.5665 65.439 44.5581 65.2494V64.984V64.8239C44.5581 64.7312 44.5581 64.6343 44.5581 64.5416V64.4995C44.5581 64.39 44.5581 64.2846 44.5581 64.1751C44.5581 64.0655 44.5581 63.9391 44.5581 63.8212C44.5581 63.7032 44.5581 63.5852 44.5834 63.4715C44.6087 63.3577 44.5834 63.2819 44.6171 63.1892C44.6508 63.0965 44.6171 63.067 44.6171 63.008C44.6171 62.949 44.6382 62.8437 44.6508 62.7595C44.6634 62.6752 44.6887 62.5235 44.7098 62.4055C45.1897 60.6917 46.0351 59.1021 47.1878 57.7461C48.3404 56.39 49.773 55.2996 51.3872 54.5498C53.0013 53.8 54.7586 53.4085 56.5383 53.4024C58.3181 53.3963 60.0781 53.7756 61.6973 54.5143C62.0703 54.6839 62.4345 54.8724 62.7885 55.0788C64.2077 55.9061 65.4469 57.0091 66.4329 58.323C66.6436 58.6039 66.8416 58.8946 67.027 59.1951C68.4966 61.5349 69.1376 64.3007 68.8471 67.0485C68.8176 67.356 68.7712 67.6636 68.7165 67.9669C67.8559 71.0252 65.8498 73.6341 63.1153 75.2513C60.3807 76.8685 57.128 77.3696 54.0335 76.6503Z" fill="black"/>
</g>
<g opacity="0.6">
<path d="M56.9117 71.8431L56.4482 73.8359L53.9287 73.2503L54.3501 71.3459C52.7522 70.9154 51.2737 70.1257 50.0273 69.0371L52.1087 66.2606C53.2057 67.2807 54.5437 68.0056 55.9974 68.3672C57.2024 68.6495 57.6827 68.4978 57.7922 68.0639C58.1588 66.4839 50.9037 66.1469 51.9907 61.4534C52.4626 59.4227 54.3332 58.0576 57.3751 58.3272L57.8301 56.3639L60.358 56.9537L59.9115 58.8792C61.1642 59.2698 62.3241 59.9121 63.3199 60.7667L61.3313 63.5431C60.3868 62.7111 59.2595 62.1135 58.0408 61.7989C56.8021 61.5082 56.3218 61.7778 56.2207 62.2202C55.871 63.7327 63.1219 64.0866 62.0475 68.7253C61.6052 70.6381 59.8272 71.9863 56.9117 71.8431Z" fill="black"/>
</g>
<path d="M56.9917 71.1437L56.5282 73.1408L54.0003 72.5509L54.4217 70.6466C52.8204 70.2104 51.3403 69.4134 50.0947 68.3167L52.176 65.5402C53.2731 66.5603 54.6111 67.2851 56.0648 67.6468C57.2698 67.9248 57.7501 67.7732 57.8596 67.3434C58.2262 65.7593 50.9711 65.4222 52.0581 60.7287C52.5299 58.698 54.4006 57.3329 57.4425 57.6026L57.8975 55.6434L60.4254 56.2291L59.9788 58.1545C61.2316 58.5451 62.3915 59.1874 63.3873 60.042L61.3987 62.8227C60.4557 61.9876 59.328 61.3883 58.1082 61.0742C56.8695 60.7877 56.3892 61.0742 56.2881 61.4955C55.9384 63.0039 63.1893 63.3578 62.1149 67.9965C61.6852 69.9556 59.8904 71.3207 56.9917 71.1437Z" fill="#407BFF"/>
<path d="M176.996 116.932L181.537 121.474L151.847 151.164H159.599L185.414 125.35L190.107 130.04L191.995 115.045L176.996 116.932Z" fill="#407BFF"/>
<g opacity="0.3">
<path d="M176.996 116.932L181.537 121.474L151.847 151.164H159.599L185.414 125.35L190.107 130.04L191.995 115.045L176.996 116.932Z" fill="white"/>
</g>
<path d="M63.0418 103.61L67.5836 108.156L24.5713 151.165H32.3193L71.4597 112.033L76.1532 116.722L78.0407 101.723L63.0418 103.61Z" fill="#407BFF"/>
<g opacity="0.3">
<path d="M63.0418 103.61L67.5836 108.156L24.5713 151.165H32.3193L71.4597 112.033L76.1532 116.722L78.0407 101.723L63.0418 103.61Z" fill="white"/>
</g>
<path d="M81.23 23.3958L82.456 23.0461L81.6724 20.3244L80.2568 20.7457C79.8513 20.2868 79.3432 19.9302 78.7737 19.7051V18.2726H75.9425V19.7051C75.4983 19.8811 75.09 20.1367 74.7375 20.4592L73.4735 19.8525L72.2349 22.3804L73.4777 22.9871C73.4777 23.0882 73.4777 23.1936 73.4777 23.2947C73.4779 23.957 73.6476 24.6082 73.9707 25.1864L73.0396 26.3535L75.2515 28.1188L76.1573 26.9854C76.5452 27.1111 76.9504 27.1751 77.3581 27.175C77.6561 27.1745 77.953 27.1391 78.2429 27.0697L79.0602 28.2199L81.369 26.581L80.5727 25.4603C80.9853 24.8494 81.2135 24.1328 81.23 23.3958ZM74.8091 23.2947C74.8091 22.7956 74.9569 22.3077 75.2337 21.8925C75.5106 21.4772 75.9041 21.1532 76.3648 20.9613C76.8255 20.7694 77.3327 20.7181 77.8225 20.8139C78.3123 20.9098 78.7627 21.1484 79.1171 21.4999C79.4714 21.8513 79.7139 22.2998 79.8138 22.7887C79.9137 23.2777 79.8666 23.7853 79.6785 24.2476C79.4904 24.7098 79.1697 25.1061 78.7567 25.3864C78.3438 25.6666 77.8571 25.8184 77.3581 25.8226C76.686 25.8215 76.0415 25.5555 75.5643 25.0823C75.0871 24.609 74.8158 23.9667 74.8091 23.2947Z" fill="#407BFF"/>
<path opacity="0.6" d="M81.23 23.3958L82.456 23.0461L81.6724 20.3244L80.2568 20.7457C79.8513 20.2868 79.3432 19.9302 78.7737 19.7051V18.2726H75.9425V19.7051C75.4983 19.8811 75.09 20.1367 74.7375 20.4592L73.4735 19.8525L72.2349 22.3804L73.4777 22.9871C73.4777 23.0882 73.4777 23.1936 73.4777 23.2947C73.4779 23.957 73.6476 24.6082 73.9707 25.1864L73.0396 26.3535L75.2515 28.1188L76.1573 26.9854C76.5452 27.1111 76.9504 27.1751 77.3581 27.175C77.6561 27.1745 77.953 27.1391 78.2429 27.0697L79.0602 28.2199L81.369 26.581L80.5727 25.4603C80.9853 24.8494 81.2135 24.1328 81.23 23.3958ZM74.8091 23.2947C74.8091 22.7956 74.9569 22.3077 75.2337 21.8925C75.5106 21.4772 75.9041 21.1532 76.3648 20.9613C76.8255 20.7694 77.3327 20.7181 77.8225 20.8139C78.3123 20.9098 78.7627 21.1484 79.1171 21.4999C79.4714 21.8513 79.7139 22.2998 79.8138 22.7887C79.9137 23.2777 79.8666 23.7853 79.6785 24.2476C79.4904 24.7098 79.1697 25.1061 78.7567 25.3864C78.3438 25.6666 77.8571 25.8184 77.3581 25.8226C76.686 25.8215 76.0415 25.5555 75.5643 25.0823C75.0871 24.609 74.8158 23.9667 74.8091 23.2947Z" fill="white"/>
<path d="M142.228 76.722L143.45 76.3723L142.671 73.6717L141.255 74.093C140.85 73.634 140.342 73.2775 139.772 73.0523V71.5651H136.928V72.9975C136.484 73.1726 136.075 73.4283 135.723 73.7517L134.459 73.145L133.221 75.6729L134.485 76.2796C134.485 76.3807 134.485 76.4818 134.485 76.5872C134.483 77.2497 134.653 77.9015 134.978 78.4789L134.042 79.6459L136.258 81.4113L137.164 80.2779C137.552 80.4036 137.957 80.4676 138.365 80.4675C138.663 80.4667 138.96 80.4314 139.25 80.3622L140.067 81.5124L142.376 79.8734L141.563 78.7822C141.978 78.1735 142.209 77.4583 142.228 76.722ZM135.808 76.6209C135.812 76.1227 135.963 75.6369 136.242 75.2244C136.522 74.812 136.917 74.4912 137.378 74.3025C137.839 74.1138 138.345 74.0655 138.834 74.1637C139.322 74.2619 139.771 74.5023 140.123 74.8545C140.475 75.2068 140.715 75.6553 140.814 76.1437C140.912 76.6321 140.864 77.1386 140.675 77.5996C140.486 78.0607 140.165 78.4557 139.753 78.735C139.341 79.0144 138.855 79.1657 138.357 79.1698C138.021 79.1726 137.688 79.1086 137.378 78.9815C137.067 78.8544 136.785 78.6668 136.548 78.4295C136.311 78.1923 136.123 77.9102 135.996 77.5996C135.869 77.2891 135.805 76.9564 135.808 76.6209Z" fill="#407BFF"/>
<path opacity="0.6" d="M142.228 76.722L143.45 76.3723L142.671 73.6717L141.255 74.093C140.85 73.634 140.342 73.2775 139.772 73.0523V71.5651H136.928V72.9975C136.484 73.1726 136.075 73.4283 135.723 73.7517L134.459 73.145L133.221 75.6729L134.485 76.2796C134.485 76.3807 134.485 76.4818 134.485 76.5872C134.483 77.2497 134.653 77.9015 134.978 78.4789L134.042 79.6459L136.258 81.4113L137.164 80.2779C137.552 80.4036 137.957 80.4676 138.365 80.4675C138.663 80.4667 138.96 80.4314 139.25 80.3622L140.067 81.5124L142.376 79.8734L141.563 78.7822C141.978 78.1735 142.209 77.4583 142.228 76.722ZM135.808 76.6209C135.812 76.1227 135.963 75.6369 136.242 75.2244C136.522 74.812 136.917 74.4912 137.378 74.3025C137.839 74.1138 138.345 74.0655 138.834 74.1637C139.322 74.2619 139.771 74.5023 140.123 74.8545C140.475 75.2068 140.715 75.6553 140.814 76.1437C140.912 76.6321 140.864 77.1386 140.675 77.5996C140.486 78.0607 140.165 78.4557 139.753 78.735C139.341 79.0144 138.855 79.1657 138.357 79.1698C138.021 79.1726 137.688 79.1086 137.378 78.9815C137.067 78.8544 136.785 78.6668 136.548 78.4295C136.311 78.1923 136.123 77.9102 135.996 77.5996C135.869 77.2891 135.805 76.9564 135.808 76.6209Z" fill="white"/>
<path d="M172.108 77.1179L170.221 92.1126L165.776 87.6677L121.845 131.594H76.6464L57.0719 151.164H49.3281L74.3755 126.117H119.579L161.9 83.7916L157.114 79.0054L172.108 77.1179Z" fill="#407BFF"/>
<path d="M110.58 116.869V123.134L113.107 123.336L114.346 117.472L110.58 116.869Z" fill="#FF8B7B"/>
<path d="M112.374 122.747C112.374 122.747 113.17 121.217 113.638 121.381C114.106 121.546 114.3 123.4 114.3 123.4C114.3 123.4 116.827 124.242 117.561 124.297C118.294 124.352 118.85 124.744 118.943 126.138H110.234C110.234 126.138 110.293 122.995 110.31 122.456C110.327 121.917 111.093 122.591 111.093 122.591L112.374 122.747Z" fill="#263238"/>
<path d="M110.331 123.648C110.487 123.734 110.625 123.851 110.735 123.992C110.844 124.133 110.924 124.295 110.968 124.468C111.013 124.641 111.022 124.821 110.994 124.998C110.966 125.174 110.902 125.343 110.807 125.494C110.801 125.501 110.797 125.51 110.795 125.519C110.793 125.528 110.793 125.537 110.795 125.546C110.796 125.555 110.8 125.564 110.805 125.572C110.81 125.579 110.817 125.586 110.825 125.591C110.833 125.596 110.842 125.599 110.851 125.6C110.86 125.602 110.869 125.601 110.878 125.599C110.887 125.597 110.896 125.592 110.903 125.587C110.91 125.581 110.916 125.573 110.92 125.565C111.026 125.401 111.097 125.217 111.129 125.024C111.161 124.831 111.153 124.634 111.106 124.444C111.059 124.254 110.974 124.076 110.856 123.921C110.738 123.765 110.589 123.635 110.419 123.539C110.347 123.497 110.263 123.615 110.335 123.657L110.331 123.648Z" fill="white"/>
<path d="M110.318 125.637L117.148 125.708H118.736C118.825 125.708 118.846 125.569 118.757 125.569L111.923 125.498H110.335C110.247 125.498 110.23 125.637 110.335 125.637H110.318Z" fill="white"/>
<path d="M113.924 123.947C113.99 123.846 114.075 123.76 114.176 123.693C114.276 123.627 114.389 123.581 114.507 123.56C114.626 123.539 114.747 123.542 114.864 123.569C114.981 123.597 115.092 123.648 115.188 123.72C115.252 123.775 115.336 123.652 115.273 123.602C114.826 123.235 114.215 123.391 113.806 123.876C113.747 123.947 113.857 124.019 113.92 123.947H113.924Z" fill="white"/>
<path d="M114.645 124.171C114.711 124.071 114.797 123.985 114.898 123.919C114.998 123.853 115.111 123.808 115.229 123.788C115.347 123.767 115.469 123.77 115.586 123.798C115.702 123.825 115.813 123.876 115.909 123.947C115.976 124.002 116.061 123.88 115.993 123.829C115.547 123.459 114.936 123.619 114.527 124.103C114.468 124.175 114.578 124.242 114.641 124.171H114.645Z" fill="white"/>
<path d="M115.391 124.398C115.457 124.298 115.543 124.212 115.643 124.146C115.744 124.081 115.856 124.036 115.975 124.015C116.093 123.994 116.214 123.997 116.331 124.025C116.448 124.052 116.558 124.103 116.655 124.175C116.722 124.225 116.806 124.107 116.739 124.053C116.292 123.686 115.681 123.846 115.277 124.331C115.214 124.402 115.323 124.47 115.386 124.398H115.391Z" fill="white"/>
<path d="M109.058 54.7797C109.13 55.8962 108.978 59.3299 109.13 61.1711C109.412 64.6848 109.795 69.2393 110.099 73.8106C110.453 79.0939 110.705 84.3814 110.579 88.0553C110.255 97.4802 110.326 118.845 110.326 118.845H114.417C114.417 118.845 119.22 97.6108 120.118 88.0553C120.868 80.1304 120.472 59.7175 120.345 54.7712L109.058 54.7797Z" fill="#263238"/>
<path opacity="0.2" d="M109.122 61.1711C109.404 64.6849 109.787 69.2393 110.091 73.8106C112.105 67.8532 110.234 58.8496 110.234 58.8496L109.122 61.1711Z" fill="black"/>
<path d="M109.973 118.98H114.771L115.121 117.451L109.846 117.387L109.973 118.98Z" fill="#407BFF"/>
<path d="M88.0008 115.702L87.0444 121.891L89.5134 122.477L91.6326 116.869L88.0008 115.702Z" fill="#FF8B7B"/>
<path d="M88.8984 121.782C88.8984 121.782 89.918 120.396 90.3561 120.627C90.7943 120.859 90.7016 122.734 90.7016 122.734C90.7016 122.734 93.0905 123.964 93.7899 124.12C94.4893 124.276 94.9948 124.761 94.8727 126.151L86.2651 124.82C86.2651 124.82 86.8044 121.723 86.9013 121.192C86.9982 120.661 87.6555 121.445 87.6555 121.445L88.8984 121.782Z" fill="#263238"/>
<path d="M86.7202 122.363C86.8604 122.472 86.9769 122.608 87.0627 122.764C87.1484 122.919 87.2016 123.09 87.2189 123.267C87.2363 123.444 87.2174 123.622 87.1636 123.791C87.1097 123.96 87.0219 124.117 86.9056 124.251C86.8508 124.322 86.9477 124.411 87.0067 124.335C87.1364 124.189 87.2349 124.018 87.296 123.832C87.3572 123.647 87.3798 123.451 87.3625 123.256C87.3451 123.062 87.2881 122.873 87.1951 122.701C87.102 122.53 86.9748 122.379 86.8213 122.258C86.7581 122.203 86.657 122.308 86.7202 122.363Z" fill="white"/>
<path d="M86.4044 124.327L93.1454 125.439L94.7127 125.696C94.8012 125.696 94.8391 125.578 94.7507 125.565L88.0096 124.449L86.4423 124.192C86.3538 124.192 86.3159 124.31 86.4044 124.327Z" fill="white"/>
<path d="M90.2252 123.206C90.3059 123.116 90.4042 123.044 90.514 122.993C90.6237 122.943 90.7427 122.915 90.8635 122.912C90.9843 122.91 91.1043 122.932 91.2163 122.977C91.3283 123.022 91.4297 123.09 91.5145 123.176C91.5692 123.24 91.6704 123.134 91.6156 123.071C91.5156 122.974 91.3972 122.899 91.2674 122.849C91.1376 122.798 90.9991 122.775 90.8601 122.779C90.721 122.784 90.5843 122.816 90.4578 122.874C90.3314 122.932 90.218 123.015 90.1241 123.117C90.0525 123.181 90.1536 123.269 90.2252 123.206Z" fill="white"/>
<path d="M90.9035 123.539C90.9842 123.449 91.0824 123.376 91.1922 123.326C91.302 123.275 91.4209 123.248 91.5417 123.245C91.6625 123.242 91.7826 123.264 91.8945 123.31C92.0065 123.355 92.108 123.423 92.1927 123.509C92.2475 123.572 92.3486 123.467 92.2938 123.404C91.9062 122.983 91.2784 123.037 90.8023 123.454C90.7307 123.518 90.8318 123.602 90.9035 123.539Z" fill="white"/>
<path d="M91.6029 123.876C91.6843 123.786 91.7831 123.714 91.8934 123.664C92.0037 123.613 92.1231 123.586 92.2442 123.584C92.3653 123.582 92.4857 123.604 92.5978 123.65C92.71 123.696 92.8116 123.764 92.8964 123.85C92.9511 123.909 93.0523 123.804 92.9975 123.745C92.6099 123.324 91.9821 123.374 91.506 123.792C91.4344 123.855 91.5355 123.939 91.6029 123.876Z" fill="white"/>
<path d="M102.401 88.8727C99.8734 98.1416 91.3797 118.154 91.3797 118.154L87.3477 117.455C87.3477 117.455 91.5608 96.6165 93.482 87.3896C95.2263 79.0602 97.1433 59.9281 97.7626 54.2319L111.287 55.4495C110.566 60.3284 104.499 81.192 102.401 88.8727Z" fill="#263238"/>
<path d="M86.9731 117.535L91.7045 118.361L92.3112 116.911L87.0448 115.951L86.9731 117.535Z" fill="#407BFF"/>
<path d="M96.9749 54.2319C96.9202 54.826 98.1336 56.1616 98.7276 56.1869L119.722 56.5534C120.354 56.5829 121.095 56.1321 121.074 55.517C120.859 48.0723 119.124 22.4646 118.546 20.8509C117.826 18.8665 113.832 18.1503 112.088 17.9944C109.333 17.8085 106.568 17.8085 103.813 17.9944C102.469 18.0576 101.243 18.1756 100.223 18.302C99.8567 18.3471 99.5029 18.4657 99.1831 18.6508C98.8634 18.8358 98.5843 19.0834 98.3624 19.3788C98.1406 19.6742 97.9806 20.0113 97.8921 20.3699C97.8035 20.7286 97.7882 21.1014 97.8471 21.4661C98.3001 24.3154 98.5955 27.1875 98.7318 30.0694C98.7318 30.2126 98.7318 30.3474 98.7318 30.4907C98.7782 31.4597 98.8245 32.4161 98.8287 33.3641C98.8287 33.5495 98.8287 33.7433 98.8287 33.9286C98.7529 43.5473 97.5016 48.2703 96.9749 54.2319Z" fill="white"/>
<path d="M105.33 56.6504C102.524 56.8231 95.0957 56.6504 95.0957 55.4791C95.0957 53.5242 97.7669 40.0041 98.0196 37.2992C98.0576 36.8779 98.0955 36.326 98.1376 35.6561C98.2092 34.3922 98.2809 32.7954 98.3483 31.0595C98.5547 25.6498 98.7232 19.0773 98.7232 19.0773C98.7232 19.0773 98.8876 17.59 105.418 17.906C105.418 17.906 107.044 25.8436 107.103 32.8291C107.162 39.8145 106.286 56.5914 105.33 56.6504Z" fill="#407BFF"/>
<path d="M112.071 17.9945C112.071 17.9945 114.948 25.6077 114.632 37.1392C114.316 48.6706 114.173 57.0675 114.173 57.0675C114.173 57.0675 121.066 57.4888 121.668 56.465C121.993 55.9047 121.197 45.8478 120.742 39.9536C120.223 33.242 119.183 22.2203 118.791 20.8974C118.125 18.6096 112.071 17.9945 112.071 17.9945Z" fill="#407BFF"/>
<path d="M146.231 16.1069C144.209 17.8849 142.145 19.5912 140.009 21.2344C138.947 22.077 137.86 22.8607 136.752 23.657C136.196 24.053 135.631 24.4364 135.045 24.824C134.46 25.2116 133.87 25.5866 133.128 25.97C132.673 26.2082 132.19 26.392 131.692 26.5177C131.248 26.6232 130.798 26.6979 130.343 26.741C129.568 26.8161 128.788 26.84 128.009 26.8126C126.584 26.75 125.164 26.6093 123.754 26.3913C122.562 26.2186 121.395 26.0079 120.236 25.7678L119.431 25.595C118.167 25.3212 116.937 25.0052 115.682 24.6513L116.92 19.1741C118.207 19.6322 119.529 19.9858 120.872 20.2316C122.136 20.5139 123.4 20.7794 124.643 21.0111C125.886 21.2428 127.133 21.4324 128.313 21.5546C128.863 21.6127 129.416 21.6394 129.969 21.6346C130.178 21.6306 130.388 21.6151 130.596 21.5883C130.742 21.5706 130.884 21.5308 131.018 21.4703C131.485 21.2849 132.058 20.9984 132.61 20.7119C133.162 20.4254 133.735 20.101 134.295 19.7893C135.437 19.1657 136.575 18.4958 137.721 17.8428C140.004 16.5156 142.317 15.1843 144.63 13.8782L146.231 16.1069Z" fill="#407BFF"/>
<path opacity="0.2" d="M120.236 25.7846L119.431 25.6118L119.01 22.6205L120.236 25.7846Z" fill="black"/>
<path d="M149.492 10.8953C149.492 10.8953 149.867 12.1339 149.589 12.7912C149.311 13.4484 147.997 13.7771 147.997 13.7771C147.997 13.7771 148.725 11.7379 149.492 10.8953Z" fill="#FF8B7B"/>
<path opacity="0.2" d="M149.492 10.8953C149.492 10.8953 149.867 12.1339 149.589 12.7912C149.311 13.4484 147.997 13.7771 147.997 13.7771C147.997 13.7771 148.725 11.7379 149.492 10.8953Z" fill="black"/>
<path d="M149.353 12.0581C148.872 12.5027 148.474 13.0291 148.178 13.6128C148.801 13.8192 149.812 13.3136 150.04 13.5664C150.267 13.8192 149.618 14.249 148.603 14.7546C148.068 15.0116 147.883 15.6225 147.171 15.871C146.864 15.9782 146.55 16.0613 146.231 16.1196C145.447 15.8247 144.601 13.8951 144.601 13.8951L146.471 12.4668C146.471 12.4668 148.194 11.1565 148.923 10.8953C149.652 10.6341 151.552 9.39539 151.683 9.71138C151.868 10.1538 150.575 11.1565 149.353 12.0581Z" fill="#FF8B7B"/>
<path opacity="0.2" d="M101.871 26.4208L98.1421 35.6561C98.2137 34.3921 98.2853 32.7953 98.3527 31.0595L101.871 26.4208Z" fill="black"/>
<path d="M112.319 3.58121C111.556 3.38613 110.761 3.35017 109.983 3.47556C109.205 3.60095 108.462 3.88502 107.799 4.31009C106.931 4.87887 106.206 5.69201 106.337 6.78323C106.693 9.05555 107.177 11.3061 107.786 13.5243L116.01 8.50642C116.01 8.50642 117.236 7.00652 115.328 5.00948C114.712 4.38172 113.461 3.8635 112.319 3.58121Z" fill="#263238"/>
<path d="M111.552 19.4479C111.433 18.9215 111.405 18.3787 111.468 17.8427L111.868 16.3723V16.3428L109.479 13.7307L107.836 11.9232C107.929 13.8234 107.352 16.1364 106.665 18.1166C106.787 18.9971 110.929 21.3565 111.552 19.4479Z" fill="#FF8B7B"/>
<g opacity="0.2">
<path d="M111.869 16.3724L111.469 17.8428C110.563 17.4215 109.619 16.5199 109.408 15.5509C109.261 14.8515 109.581 14.2027 109.863 14.1689L111.869 16.3724Z" fill="black"/>
</g>
<path d="M115.568 13.3179C115.479 13.6381 115.378 13.9498 115.273 14.2616C114.337 17.0002 110.95 17.2108 108.856 15.1843C108.668 14.9991 108.493 14.8006 108.334 14.5902C107.006 12.8165 107.352 11.4641 107.579 8.39266C107.628 7.67998 107.856 6.99129 108.244 6.39129C108.631 5.79128 109.165 5.29967 109.795 4.96265C110.425 4.62564 111.13 4.45428 111.844 4.46468C112.558 4.47508 113.258 4.6669 113.878 5.02211C116.431 6.48409 116.452 10.1201 115.568 13.3179Z" fill="#FF8B7B"/>
<path d="M109.876 6.40822C109.876 6.40822 112.85 8.637 116.305 7.62162C118.058 7.10761 117.763 3.51377 116.385 2.8186C115.26 2.24982 114.346 3.63174 114.346 3.63174C113.219 3.01499 111.937 2.73839 110.655 2.83545C108.338 2.93657 107.377 4.27215 107.377 4.27215C107.029 4.26329 106.687 4.37128 106.407 4.57894C106.127 4.7866 105.924 5.082 105.831 5.41813C105.519 6.47564 106.674 8.49375 106.674 8.49375L109.876 6.40822Z" fill="#263238"/>
<path d="M112.492 10.0147C112.458 10.2548 112.559 10.4655 112.715 10.4866C112.871 10.5076 113.027 10.3307 113.061 10.0905C113.094 9.85037 112.993 9.63971 112.833 9.61865C112.673 9.59758 112.526 9.77453 112.492 10.0147Z" fill="#263238"/>
<path d="M113.625 13.8445H113.71C113.734 13.8413 113.755 13.829 113.77 13.8101C113.785 13.7913 113.792 13.7673 113.79 13.7434C113.789 13.7313 113.785 13.7196 113.78 13.709C113.774 13.6983 113.766 13.689 113.757 13.6815C113.747 13.674 113.736 13.6685 113.724 13.6654C113.713 13.6622 113.701 13.6615 113.689 13.6633C113.51 13.6788 113.331 13.6581 113.161 13.6023C112.991 13.5465 112.834 13.4568 112.7 13.3386C112.566 13.2205 112.457 13.0763 112.38 12.9149C112.303 12.7535 112.259 12.5781 112.252 12.3994C112.251 12.3873 112.247 12.3756 112.242 12.365C112.236 12.3543 112.228 12.345 112.219 12.3375C112.209 12.33 112.198 12.3245 112.187 12.3214C112.175 12.3182 112.163 12.3175 112.151 12.3193C112.127 12.3225 112.105 12.3348 112.09 12.3537C112.075 12.3725 112.068 12.3965 112.071 12.4204C112.093 12.8138 112.267 13.1831 112.558 13.4492C112.849 13.7153 113.232 13.8572 113.625 13.8445Z" fill="#263238"/>
<path d="M107.533 8.6707C107.533 8.6707 108.46 8.72126 108.494 9.51333C108.527 10.3054 108.447 10.4107 108.447 10.4107L109.572 10.4908C109.572 10.4908 108.94 8.11877 109.737 8.1609C110.533 8.20304 109.37 6.45457 110.47 6.14279C111.645 5.80995 114.683 5.67091 115.867 7.53314C115.644 6.4067 115.016 5.40101 114.101 4.7061C112.644 3.71179 109.703 3.48849 108.506 4.9294C107.31 6.3703 107.533 8.6707 107.533 8.6707Z" fill="#263238"/>
<path d="M105.987 10.238C106.104 11.0053 106.519 11.6956 107.141 12.1592C107.984 12.7617 108.742 12.1044 108.826 11.1312C108.885 10.259 108.527 8.89396 107.563 8.67487C107.348 8.63136 107.127 8.64194 106.918 8.70568C106.708 8.76941 106.519 8.88428 106.365 9.03988C106.212 9.19548 106.099 9.38691 106.038 9.59684C105.977 9.80677 105.97 10.0286 106.016 10.2422" fill="#FF8B7B"/>
<path d="M114.965 10.3012C114.931 10.5413 115.032 10.752 115.188 10.7731C115.344 10.7941 115.5 10.6172 115.534 10.377C115.567 10.1369 115.462 9.92621 115.306 9.90514C115.15 9.88408 114.994 10.061 114.965 10.3012Z" fill="#263238"/>
<path d="M115.862 9.7156C115.842 9.71094 115.823 9.70113 115.808 9.68712C115.792 9.6731 115.78 9.65535 115.774 9.63556C115.757 9.54708 115.72 9.46349 115.667 9.39068C115.614 9.31787 115.545 9.25764 115.466 9.21424C115.308 9.14568 115.13 9.13524 114.965 9.18475C114.95 9.19006 114.934 9.19231 114.917 9.19137C114.901 9.19042 114.886 9.18631 114.871 9.17926C114.857 9.17221 114.844 9.16237 114.833 9.15029C114.822 9.13822 114.814 9.12416 114.809 9.10891C114.799 9.07815 114.802 9.04489 114.816 9.01591C114.83 8.98694 114.855 8.96444 114.885 8.95302C115.113 8.88231 115.358 8.89729 115.576 8.99515C115.679 9.05226 115.77 9.12993 115.843 9.22339C115.915 9.31685 115.968 9.42414 115.997 9.53865C116.002 9.55385 116.004 9.56995 116.003 9.58595C116.002 9.60196 115.997 9.61754 115.99 9.63174C115.982 9.64594 115.972 9.65846 115.959 9.66853C115.947 9.67861 115.933 9.68602 115.917 9.69033C115.902 9.70371 115.883 9.71247 115.862 9.7156Z" fill="#263238"/>
<path d="M111.856 9.33219C111.839 9.33598 111.822 9.33598 111.805 9.33219C111.79 9.32625 111.777 9.3173 111.765 9.30588C111.754 9.29447 111.745 9.28084 111.739 9.26583C111.733 9.25083 111.73 9.23476 111.731 9.21864C111.732 9.20252 111.735 9.18668 111.742 9.17209C111.845 8.95746 112.021 8.78696 112.239 8.69179C112.353 8.65409 112.472 8.63988 112.591 8.65003C112.71 8.66017 112.825 8.69445 112.93 8.75078C112.945 8.75756 112.958 8.76722 112.969 8.7792C112.98 8.79118 112.989 8.80523 112.994 8.82053C113 8.83584 113.002 8.85208 113.001 8.86832C113.001 8.88456 112.996 8.90046 112.989 8.91509C112.982 8.9295 112.972 8.94235 112.96 8.95291C112.948 8.96347 112.934 8.97153 112.919 8.97662C112.903 8.98171 112.887 8.98373 112.871 8.98257C112.855 8.98141 112.839 8.97709 112.825 8.96986C112.75 8.92901 112.667 8.90384 112.581 8.89587C112.496 8.88791 112.41 8.89731 112.328 8.92351C112.168 8.99172 112.039 9.11617 111.966 9.27321C111.954 9.29165 111.938 9.30678 111.919 9.31711C111.899 9.32745 111.878 9.33264 111.856 9.33219Z" fill="#263238"/>
<path d="M113.866 10.3391C114.157 11.0043 114.408 11.6867 114.616 12.3825C114.654 12.669 113.752 12.6606 113.752 12.6606L113.866 10.3391Z" fill="#FF5652"/>
<path d="M98.062 19.743C96.6421 22.2119 95.3065 24.7314 94.0047 27.2635C93.3474 28.5274 92.7112 29.7914 92.0666 31.0553L91.1186 32.9513L90.6468 33.8782L90.4108 34.329L90.3013 34.5396C90.2732 34.5931 90.2479 34.6479 90.2255 34.7039L90.1623 34.8556L90.1159 34.9736L90.0401 35.1969L89.9811 35.3949C89.8378 35.8921 89.762 36.2839 89.6862 36.6799C89.6103 37.076 89.5513 37.4467 89.4924 37.8217C89.3786 38.5674 89.2817 39.2921 89.2017 40.021C89.0373 41.4745 88.8941 42.9112 88.7803 44.3521C88.5612 47.2297 88.4054 50.0947 88.359 52.9849C88.354 53.3807 88.4943 53.7647 88.7533 54.0641C89.0123 54.3634 89.3721 54.5574 89.7646 54.6093C90.157 54.6612 90.5549 54.5675 90.8829 54.3457C91.2108 54.124 91.4461 53.7898 91.5442 53.4062C92.2309 50.6382 92.8545 47.849 93.4822 45.0852C93.8067 43.7075 94.11 42.3256 94.4386 40.9689C94.6072 40.2906 94.7673 39.6165 94.94 38.9677C95.0243 38.6391 95.1127 38.3188 95.2054 38.0197C95.2814 37.7539 95.3714 37.4923 95.4751 37.2361C95.4819 37.2171 95.4903 37.1988 95.5003 37.1813C95.5003 37.1813 95.5003 37.1518 95.5003 37.156V37.1855V37.2276C95.4866 37.2593 95.4711 37.2903 95.454 37.3203L95.4961 37.2529L95.5804 37.1223L95.7447 36.8653L96.3261 35.9258L97.4511 34.0846C98.1841 32.8501 98.9172 31.6199 99.6251 30.3812C101.053 27.9039 102.439 25.4097 103.737 22.8607C104.064 22.1175 104.101 21.2787 103.84 20.5097C103.58 19.7407 103.04 19.0972 102.329 18.706C101.617 18.3148 100.785 18.2043 99.996 18.3963C99.207 18.5882 98.5185 19.0686 98.0662 19.743H98.062Z" fill="#407BFF"/>
<path d="M84.7695 61.032V58.3903C84.7695 58.3467 84.7868 58.3049 84.8176 58.2741C84.8484 58.2433 84.8902 58.226 84.9338 58.226H86.3705V57.8047H84.938C84.7816 57.8047 84.6315 57.8668 84.5209 57.9774C84.4103 58.0881 84.3481 58.2381 84.3481 58.3945V61.032H84.7695Z" fill="#263238"/>
<path d="M94.6743 58.3693V61.032H95.0956V58.3904C95.0956 58.2339 95.0334 58.0839 94.9228 57.9733C94.8122 57.8627 94.6622 57.8005 94.5057 57.8005H93.0732V58.2219H94.5057C94.547 58.2215 94.587 58.2364 94.618 58.2635C94.6491 58.2907 94.6691 58.3284 94.6743 58.3693Z" fill="#263238"/>
<path d="M100.716 62.1275V75.4411C100.716 75.7384 100.598 76.0234 100.388 76.2336C100.178 76.4438 99.8925 76.5618 99.5953 76.5618H80.379C80.0821 76.5607 79.7977 76.4423 79.5878 76.2324C79.3778 76.0224 79.2594 75.738 79.2583 75.4411V62.1275C79.2594 61.831 79.378 61.547 79.588 61.3378C79.7981 61.1285 80.0825 61.011 80.379 61.011H99.5953C99.7423 61.0104 99.8879 61.0389 100.024 61.0948C100.16 61.1506 100.283 61.2328 100.388 61.3365C100.492 61.4402 100.574 61.5635 100.631 61.6992C100.687 61.835 100.716 61.9805 100.716 62.1275Z" fill="#263238"/>
<g opacity="0.5">
<path d="M100.716 62.1275V75.4411C100.716 75.7384 100.598 76.0234 100.388 76.2336C100.178 76.4438 99.8925 76.5618 99.5953 76.5618H80.379C80.0821 76.5607 79.7977 76.4423 79.5878 76.2324C79.3778 76.0224 79.2594 75.738 79.2583 75.4411V62.1275C79.2594 61.831 79.378 61.547 79.588 61.3378C79.7981 61.1285 80.0825 61.011 80.379 61.011H99.5953C99.7423 61.0104 99.8879 61.0389 100.024 61.0948C100.16 61.1506 100.283 61.2328 100.388 61.3365C100.492 61.4402 100.574 61.5635 100.631 61.6992C100.687 61.835 100.716 61.9805 100.716 62.1275Z" fill="white"/>
</g>
<path d="M97.8974 61.011H97.0464V76.5618H97.8974V61.011Z" fill="#263238"/>
<path d="M82.9326 61.011H82.0815V76.5618H82.9326V61.011Z" fill="#263238"/>
<path d="M91.2744 53.9623C91.2744 53.9623 92.6479 57.0632 92.4962 57.7541C92.3446 58.4451 91.4134 57.1601 91.4134 57.1601L91.2744 53.9623Z" fill="#FF8B7B"/>
<path d="M93.516 57.2823H85.7764V58.7022H93.516V57.2823Z" fill="#263238"/>
<path opacity="0.3" d="M93.516 57.2823H85.7764V58.7022H93.516V57.2823Z" fill="white"/>
<path d="M88.4515 53.4905L87.3814 56.6504C87.1665 57.552 90.082 58.8707 91.207 58.0913C92.0959 57.4804 91.3291 53.8149 91.3291 53.8149C90.9116 53.5318 90.4316 53.3543 89.9303 53.2978C89.4291 53.2413 88.9216 53.3074 88.4515 53.4905Z" fill="#FF8B7B"/>
<path d="M87.3816 56.6504C87.1583 57.6573 87.2889 59.6291 88.8983 59.8356C89.2495 59.8923 89.6069 59.8994 89.9601 59.8566C90.2771 59.9897 90.628 60.0192 90.9628 59.9409C91.7717 59.6839 91.4726 57.6489 91.4726 57.6489L87.3816 56.6504Z" fill="#FF8B7B"/>
<path d="M107.163 16.5788C107.163 16.5788 104.871 16.0901 104.374 17.9944V24.2847L105.692 25.9321L104.652 26.9685L104.622 35.0536L107.057 35.8962C107.108 33.6464 107.479 29.6102 106.914 23.6401C106.704 21.2851 106.788 18.9132 107.163 16.5788Z" fill="#407BFF"/>
<path opacity="0.3" d="M107.163 16.5788C107.163 16.5788 104.871 16.0901 104.374 17.9944V24.2847L105.692 25.9321L104.652 26.9685L104.622 35.0536L107.057 35.8962C107.108 33.6464 107.479 29.6102 106.914 23.6401C106.704 21.2851 106.788 18.9132 107.163 16.5788Z" fill="black"/>
<path d="M111.468 17.8428C111.468 17.8428 112.543 18.934 113.078 21.4282C113.613 23.9224 114.696 34.8303 114.662 36.2165L117.072 34.409L116.094 25.7467L114.666 24.862L115.867 23.2862C115.867 23.2862 114.763 19.309 114.051 18.2936C113.339 17.2782 111.692 17.0297 111.692 17.0297L111.468 17.8428Z" fill="#407BFF"/>
<path opacity="0.3" d="M111.468 17.8428C111.468 17.8428 112.543 18.934 113.078 21.4282C113.613 23.9224 114.696 34.8303 114.662 36.2165L117.072 34.409L116.094 25.7467L114.666 24.862L115.867 23.2862C115.867 23.2862 114.763 19.309 114.051 18.2936C113.339 17.2782 111.692 17.0297 111.692 17.0297L111.468 17.8428Z" fill="black"/>
</svg>
