<svg width="335" height="395" viewBox="0 0 335 395" fill="none" xmlns="http://www.w3.org/2000/svg">
<path d="M284.987 29.7819C266.699 8.93681 233.639 2.09353e-07 191.347 2.09353e-07H68.6018C64.4171 -0.000645398 60.3696 1.49193 57.1872 4.20926C54.0048 6.92658 51.8964 10.6903 51.2414 14.8234L0.132635 338.968C-0.88324 345.359 4.0662 351.148 10.5447 351.148H86.3232L105.354 230.436L104.764 234.216C106.12 225.683 113.417 219.39 122.059 219.39H158.068C228.809 219.39 284.201 190.656 300.381 107.537C300.862 105.079 301.278 102.686 301.637 100.349C299.595 99.267 299.595 99.267 301.637 100.349C306.456 69.6268 301.605 48.7148 284.987 29.7819Z" fill="#27346A"/>
<path d="M134.35 89.2815C136.421 88.2935 138.688 87.7822 140.982 87.7852H237.212C248.607 87.7852 259.236 88.5268 268.948 90.09C271.666 90.5237 274.37 91.041 277.056 91.6414C280.862 92.4815 284.625 93.5096 288.33 94.7218C293.105 96.3165 297.55 98.1737 301.637 100.349C306.454 69.615 301.605 48.7148 284.987 29.7819C266.688 8.93681 233.639 2.09353e-07 191.347 2.09353e-07L68.5913 2.34693e-07C59.9485 2.34693e-07 52.5959 6.29212 51.2414 14.8234L0.132635 338.956C-0.88324 345.358 4.0662 351.138 10.5342 351.138H86.3232L125.807 100.753C126.196 98.2918 127.176 95.962 128.664 93.9638C130.152 91.9656 132.104 90.3588 134.35 89.2815Z" fill="#27346A"/>
<path d="M300.381 107.537C284.201 190.645 228.811 219.39 158.068 219.39H122.048C113.407 219.39 106.107 225.683 104.764 234.216L81.0889 384.307C80.2043 389.9 84.5303 394.969 90.1898 394.969H154.069C157.728 394.968 161.267 393.662 164.049 391.285C166.831 388.908 168.674 385.616 169.246 382.002L169.868 378.747L181.907 302.443L182.683 298.226C183.255 294.612 185.097 291.321 187.879 288.944C190.661 286.567 194.199 285.26 197.858 285.259H207.418C269.299 285.259 317.752 260.119 331.912 187.412C337.822 157.028 334.764 131.66 319.129 113.841C314.387 108.444 308.498 103.987 301.637 100.349C301.266 102.698 300.863 105.079 300.381 107.537Z" fill="#2790C3"/>
<path d="M284.704 93.597C282.181 92.8604 279.634 92.2081 277.067 91.6414C274.38 91.0506 271.677 90.5368 268.96 90.1005C259.237 88.5268 248.618 87.7852 237.212 87.7852L140.993 87.7839C138.697 87.7801 136.429 88.2956 134.361 89.292C132.111 90.3654 130.157 91.9711 128.669 93.97C127.18 95.9689 126.201 98.3006 125.816 100.763L105.365 230.436L104.774 234.216C106.12 225.683 113.416 219.39 122.059 219.39H158.08C228.821 219.39 284.211 190.656 300.392 107.537C300.874 105.079 301.278 102.697 301.649 100.349C297.553 98.1873 293.116 96.3152 288.341 94.7323C287.135 94.3327 285.922 93.9542 284.704 93.597Z" fill="#1F264F"/>
</svg>
