<svg width="550" height="230" viewBox="0 0 550 230" fill="none" xmlns="http://www.w3.org/2000/svg">
<path d="M550 118.839C550 79.5329 531.055 48.518 494.847 48.518C458.485 48.518 436.485 79.534 436.485 118.532C436.485 164.747 462.459 188.085 499.735 188.085C517.916 188.085 531.666 183.939 542.055 178.105V147.397C531.667 152.618 519.75 155.842 504.625 155.842C489.805 155.842 476.666 150.621 474.986 132.504H549.695C549.695 130.507 550 122.524 550 118.839ZM474.528 104.253C474.528 86.9031 485.07 79.6862 494.695 79.6862C504.014 79.6862 513.945 86.9031 513.945 104.253H474.528ZM377.515 48.518C362.541 48.518 352.916 55.5805 347.57 60.4947L345.583 50.9751H311.972V230L350.166 221.863L350.32 178.412C355.82 182.404 363.916 188.085 377.361 188.085C404.709 188.085 429.611 165.975 429.611 117.304C429.459 72.777 404.251 48.518 377.515 48.518ZM368.346 154.306C359.333 154.306 353.984 151.082 350.319 147.09L350.165 90.1267C354.138 85.6746 359.638 82.6043 368.346 82.6043C382.249 82.6043 391.874 98.2645 391.874 118.378C391.874 138.952 382.401 154.306 368.346 154.306ZM259.416 39.4593L297.764 31.1682V0L259.416 8.13779V39.4593ZM259.416 51.1284H297.764V185.474H259.416V51.1284ZM218.32 62.4898L215.875 51.1284H182.875V185.474H221.07V94.4267C230.083 82.6043 245.361 84.7537 250.097 86.4422V51.1284C245.209 49.2856 227.334 45.9076 218.32 62.4898ZM141.93 17.8107L104.653 25.7941L104.5 148.779C104.5 171.504 121.459 188.238 144.07 188.238C156.597 188.238 165.764 185.935 170.805 183.172V152.003C165.917 153.999 141.778 161.062 141.778 138.338V83.8318H170.805V51.1284H141.778L141.93 17.8107ZM38.6525 90.1267C38.6525 84.1394 43.5413 81.8356 51.6398 81.8356C63.25 81.8356 77.9163 85.368 89.5275 91.663V55.5805C76.8475 50.5141 64.3199 48.518 51.6398 48.518C20.625 48.518 0 64.7936 0 91.9706C0 134.346 58.0551 127.591 58.0551 145.863C58.0551 152.924 51.9449 155.228 43.3888 155.228C30.7087 155.228 14.5138 150.007 1.68008 142.945V179.487C15.8888 185.629 30.25 188.238 43.3888 188.238C75.1663 188.238 97.0138 172.424 97.0138 144.941C96.8612 99.1865 38.6525 107.323 38.6525 90.1267Z" fill="#635BFF"/>
</svg>
